<svg width="24" height="26" viewBox="0 0 24 26" fill="none" xmlns="http://www.w3.org/2000/svg">
<g filter="url(#filter0_d_1_12)">
<path d="M18.6667 17.5V15.8333C18.6667 14.9493 18.3155 14.1014 17.6903 13.4763C17.0652 12.8512 16.2174 12.5 15.3333 12.5H8.66666C7.78261 12.5 6.93476 12.8512 6.30964 13.4763C5.68452 14.1014 5.33333 14.9493 5.33333 15.8333V17.5" stroke="white" stroke-linecap="round" stroke-linejoin="round"/>
<path d="M12 9.16667C13.841 9.16667 15.3333 7.67428 15.3333 5.83333C15.3333 3.99238 13.841 2.5 12 2.5C10.1591 2.5 8.66667 3.99238 8.66667 5.83333C8.66667 7.67428 10.1591 9.16667 12 9.16667Z" stroke="white" stroke-linecap="round" stroke-linejoin="round"/>
</g>
<defs>
<filter id="filter0_d_1_12" x="-2" y="0" width="28" height="28" filterUnits="userSpaceOnUse" color-interpolation-filters="sRGB">
<feFlood flood-opacity="0" result="BackgroundImageFix"/>
<feColorMatrix in="SourceAlpha" type="matrix" values="0 0 0 0 0 0 0 0 0 0 0 0 0 0 0 0 0 0 127 0" result="hardAlpha"/>
<feOffset dy="4"/>
<feGaussianBlur stdDeviation="2"/>
<feComposite in2="hardAlpha" operator="out"/>
<feColorMatrix type="matrix" values="0 0 0 0 0 0 0 0 0 0 0 0 0 0 0 0 0 0 0.25 0"/>
<feBlend mode="normal" in2="BackgroundImageFix" result="effect1_dropShadow_1_12"/>
<feBlend mode="normal" in="SourceGraphic" in2="effect1_dropShadow_1_12" result="shape"/>
</filter>
</defs>
</svg>
